<?xml version="1.0" encoding="utf-8"?>
<!-- Generator: Adobe Illustrator 16.0.4, SVG Export Plug-In . SVG Version: 6.00 Build 0)  -->
<!DOCTYPE svg PUBLIC "-//W3C//DTD SVG 1.1//EN" "http://www.w3.org/Graphics/SVG/1.1/DTD/svg11.dtd">
<svg version="1.1"xmlns:dc="http://purl.org/dc/elements/1.1/" xmlns="http://www.w3.org/2000/svg" xmlns:xlink="http://www.w3.org/1999/xlink" x="0px" y="0px" viewBox="0 0 185.141 185.141" enable-background="new 0 0 185.141 185.141" xml:space="preserve">

<g id="g4" transform="matrix(1,0,0,-1,121.49153,1270.2373)">
	<path id="path6" d="M60.635,1158.381c0-0.401-0.039-0.683-0.121-0.844
		c-5.143-21.535-15.91-38.991-32.302-52.371c-16.393-13.38-35.598-20.069-57.616-20.069c-11.732,0-23.082,2.21-34.051,6.629
		c-10.969,4.42-20.752,10.729-29.351,18.925l-15.549-15.55c-1.526-1.526-3.334-2.289-5.424-2.289s-3.897,0.763-5.424,2.289
		c-1.527,1.527-2.29,3.336-2.29,5.425v53.999c0,2.089,0.763,3.897,2.29,5.424s3.335,2.29,5.424,2.29h54
		c2.089,0,3.897-0.764,5.424-2.29c1.527-1.526,2.291-3.335,2.291-5.424s-0.764-3.897-2.291-5.425l-16.513-16.513
		c5.706-5.304,12.174-9.401,19.406-12.295c7.231-2.892,14.745-4.338,22.54-4.338c10.768,0,20.812,2.611,30.134,7.833
		c9.322,5.224,16.795,12.416,22.42,21.576c0.883,1.366,3.014,6.067,6.388,14.104c0.643,1.848,1.848,2.771,3.615,2.771h23.143
		c1.045,0,1.949-0.381,2.713-1.145C60.255,1160.33,60.635,1159.426,60.635,1158.381z M63.649,1254.809v-54
		c0-2.089-0.764-3.897-2.291-5.424c-1.525-1.526-3.334-2.29-5.424-2.29H1.935c-2.088,0-3.896,0.763-5.424,2.29
		c-1.527,1.527-2.289,3.335-2.289,5.424s0.762,3.897,2.289,5.424l16.635,16.634c-11.893,11.009-25.916,16.513-42.067,16.513
		c-10.768,0-20.812-2.612-30.133-7.835s-16.794-12.415-22.419-21.576c-0.884-1.366-3.014-6.067-6.389-14.103
		c-0.643-1.848-1.848-2.772-3.616-2.772h-23.986c-1.045,0-1.949,0.382-2.712,1.145c-0.764,0.763-1.146,1.667-1.146,2.712v0.844
		c5.224,21.536,16.072,38.994,32.544,52.373c16.473,13.379,35.759,20.069,57.856,20.069c11.732,0,23.144-2.229,34.231-6.689
		c11.09-4.46,20.934-10.748,29.53-18.863l15.67,15.548c1.527,1.527,3.336,2.291,5.424,2.291c2.09,0,3.898-0.764,5.424-2.291
		C62.885,1258.706,63.649,1256.898,63.649,1254.809z"/>
</g>
</svg>
